<svg xmlns="http://www.w3.org/2000/svg" viewBox="0 0 32 32" width="32" height="32">
  <rect width="32" height="32" rx="6" fill="#0D1B3E"/>
  <defs>
    <linearGradient id="fg" x1="0%" y1="0%" x2="100%" y2="0%">
      <stop offset="0%" style="stop-color:#ffffff" stop-opacity="0.9"/>
      <stop offset="50%" style="stop-color:#64B5F6"/>
      <stop offset="100%" style="stop-color:#2979FF"/>
    </linearGradient>
  </defs>
  <!-- Simplified infinity at favicon scale -->
  <path d="M8 16 C8 12 10 9.5 13 9.5 C16 9.5 17.5 12 19 16 C20.5 20 22 22.5 25 22.5 C28 22.5 30 20 30 16 C30 12 28 9.5 25 9.5 C22 9.5 20.5 12 19 16 C17.5 20 16 22.5 13 22.5 C10 22.5 8 20 8 16Z"
    fill="none"
    stroke="url(#fg)"
    stroke-width="2.2"
    stroke-linecap="round"
    stroke-linejoin="round"
    transform="translate(-3, 0) scale(0.95)"/>
  <!-- Heart hint in right loop (tiny) -->
  <path d="M22.5 17.5 C22.5 17.5 20.5 15.5 20.5 14 C20.5 12.8 21.3 12 22.5 12 C23 12 23.3 12.4 23.3 12.4 C23.3 12.4 23.6 12 24.1 12 C25.3 12 26 12.8 26 14 C26 15.5 24 17.5 24 17.5Z"
    fill="#2979FF" transform="translate(-1, -0.5) scale(0.95)"/>
  <!-- Center dot -->
  <circle cx="15.5" cy="16" r="1.5" fill="#2979FF"/>
</svg>
